#!OML:ASF H:\Terrain\Patient Classification 1\Takeo\Monday\TakeoMonday.ASF
:FULLY-SPECIFIED
:DEGREES
1043
root 10.1163 17.3239 -0.146179 9.11203 -5.96386 -5.04513
lowerback 18.9204 2.88837 1.31224
upperback 10.4407 3.83555 -3.46225
thorax 1.02271 2.06533 -5.08582
lowerneck -9.28147 -12.5376 -10.2837
upperneck -11.0873 -15.358 16.3255
head 0.351282 -7.59705 5.85088
rclavicle 2.22639e-014 1.11319e-014
rhumerus 59.5353 -21.1698 -47.3141
rradius 22.0157
rwrist 3.05219
rhand -26.1178 19.0683
rfingers 7.12502
rthumb 0.43198 -10.911
lclavicle 2.22639e-014 1.11319e-014
lhumerus -32.4078 -10.7906 96.4117
lradius 108.836
lwrist 19.9958
lhand -28.0435 0.322974
lfingers 7.12502
lthumb -1.42789 30.2979
rfemur -12.9094 -19.8705 27.5426
rtibia 31.8238
rfoot -24.2741 -21.0238
rtoes -5.40485
lfemur -36.6766 5.93091 -17.9575
ltibia 42.7979
lfoot -9.79625 0.736971
ltoes -2.57864
1044
root 10.103 17.3344 -0.133657 9.15782 -5.92839 -5.16319
lowerback 19.0537 3.02642 1.0484
upperback 10.2447 3.97009 -3.29917
thorax 0.72071 2.10698 -4.79953
lowerneck -8.95607 -12.4881 -10.7437
upperneck -10.9606 -15.2892 16.362
head 0.369027 -7.55454 5.94841
rclavicle -5.56597e-015 1.59028e-015
rhumerus 58.3407 -20.6466 -46.6469
rradius 23.0957
rwrist 2.37998
rhand -26.6727 19.3804
rfingers 7.12502
rthumb -0.103943 -10.5994
lclavicle -5.56597e-015 1.59028e-015
lhumerus -32.7858 -10.7527 96.7611
lradius 108.64
lwrist 19.8961
lhand -28.9551 -1.17744
lfingers 7.12502
lthumb -2.30834 28.7898
rfemur -12.8856 -19.8169 27.6925
rtibia 31.7609
rfoot -24.2409 -20.906
rtoes -5.34084
lfemur -36.693 5.9732 -17.7911
ltibia 42.8008
lfoot -9.8697 0.7019
ltoes -1.69388
1045
root 10.0947 17.3324 -0.125536 9.21371 -5.84072 -5.47694
lowerback 18.9898 3.02197 1.20987
upperback 10.2299 3.99219 -3.22857
thorax 0.745177 2.12273 -4.81542
lowerneck -8.93986 -12.3586 -10.688
upperneck -10.9188 -15.127 16.1339
head 0.33115 -7.47139 5.8893
rclavicle 4.6118e-014 -3.49861e-014
rhumerus 56.8804 -19.8908 -45.2417
rradius 24.6008
rwrist 0.724847
rhand -26.7826 19.5977
rfingers 7.12502
rthumb -0.21012 -10.382
lclavicle 4.6118e-014 -3.49861e-014
lhumerus -32.7809 -10.8465 96.757
lradius 108.492
lwrist 19.9278
lhand -30.098 0.698941
lfingers 7.12502
lthumb -3.4121 30.6514
rfemur -12.844 -19.9134 28.0482
rtibia 31.716
rfoot -24.4128 -20.7045
rtoes -4.55353
lfemur -36.6779 5.89519 -17.3956
ltibia 42.7778
lfoot -9.9187 0.76667
ltoes -2.60004
1046
root 10.0862 17.3259 -0.117324 9.1093 -5.80991 -5.5255
lowerback 18.8007 2.93679 1.17845
upperback 10.3427 3.87954 -3.37404
thorax 0.963302 2.07553 -4.91825
lowerneck -8.86724 -12.1291 -10.3449
upperneck -10.994 -14.8452 16.0197
head 0.227286 -7.34583 5.83993
rclavicle -7.95139e-016 1.90833e-014
rhumerus 55.9498 -19.3479 -44.9816
rradius 26.0722
rwrist -0.315972
rhand -26.5579 19.5983
rfingers 7.12502
rthumb 0.00686382 -10.3815
lclavicle -7.95139e-016 1.90833e-014
lhumerus -32.6895 -10.7574 96.3804
lradius 108.502
lwrist 20.0007
lhand -31.002 0.964071
lfingers 7.12502
lthumb -4.28509 30.9007
rfemur -12.6443 -20.0039 28.0466
rtibia 31.6827
rfoot -24.477 -20.5373
rtoes -3.85327
lfemur -36.4592 5.7368 -17.2723
ltibia 42.7357
lfoot -9.96322 0.943085
ltoes -4.17496
1047
root 10.0774 17.3267 -0.110782 8.98692 -5.90465 -5.2777
lowerback 18.652 2.94227 0.79689
upperback 10.3973 3.82822 -3.5691
thorax 1.08181 2.04223 -4.89126
lowerneck -8.86484 -12.0129 -10.091
upperneck -10.9086 -14.7172 15.9337
head 0.209736 -7.28812 5.78604
rclavicle -2.14687e-014 1.98785e-014
rhumerus 55.227 -18.9624 -45.4164
rradius 27.4325
rwrist -0.746791
rhand -26.5501 19.6841
rfingers 7.12502
rthumb 0.0144294 -10.2957
lclavicle -2.14687e-014 1.98785e-014
lhumerus -32.6637 -10.7317 96.1019
lradius 108.43
lwrist 20.0236
lhand -30.4291 -1.53492
lfingers 7.12502
lthumb -3.73188 28.4122
rfemur -12.49 -19.8787 27.7047
rtibia 31.6369
rfoot -24.4757 -20.681
rtoes -4.12827
lfemur -36.2529 5.68661 -17.5021
ltibia 42.6919
lfoot -9.92524 1.08075
ltoes -4.36411
1048
root 10.0734 17.3316 -0.105961 8.995 -5.88131 -5.47247
lowerback 18.4838 2.9503 0.978848
upperback 10.4144 3.8705 -3.56441
thorax 1.20303 2.07387 -4.98492
lowerneck -9.16499 -12.0975 -9.98859
upperneck -10.5189 -14.8557 15.6589
head 0.3512 -7.33742 5.64592
rclavicle 4.69132e-014 -4.85035e-014
rhumerus 54.2066 -18.6201 -45.4953
rradius 28.9618
rwrist -1.39386
rhand -26.9138 19.9322
rfingers 7.12502
rthumb -0.336864 -10.0472
lclavicle 4.69132e-014 -4.85035e-014
lhumerus -32.5669 -10.9532 96.0873
lradius 108.206
lwrist 20.0953
lhand -29.1574 -1.32356
lfingers 7.12502
lthumb -2.5037 28.6415
rfemur -12.4058 -19.8774 27.9019
rtibia 31.5625
rfoot -24.3002 -20.7644
rtoes -4.1111
lfemur -36.2527 5.66493 -17.2619
ltibia 42.684
lfoot -9.86048 1.13315
ltoes -3.15676
1049
root 10.0718 17.3363 -0.098679 8.99391 -5.8063 -5.83779
lowerback 18.2956 2.92369 1.39784
upperback 10.4321 3.90412 -3.49317
thorax 1.34698 2.11059 -5.1387
lowerneck -9.44586 -12.0824 -9.87624
upperneck -10.1412 -14.8598 15.296
head 0.460963 -7.32 5.49325
rclavicle -1.35174e-014 6.36111e-015
rhumerus 53.1564 -18.309 -45.5806
rradius 30.4329
rwrist -1.78149
rhand -27.3766 20.0281
rfingers 7.12502
rthumb -0.783823 -9.95018
lclavicle -1.35174e-014 6.36111e-015
lhumerus -32.4816 -11.143 96.1179
lradius 108.003
lwrist 20.1847
lhand -28.3808 -0.152413
lfingers 7.12502
lthumb -1.7537 29.8201
rfemur -12.2467 -20.0097 28.2756
rtibia 31.4749
rfoot -23.9132 -20.5976
rtoes -4.4578
lfemur -36.2338 5.6628 -16.842
ltibia 42.7221
lfoot -10.0101 1.09178
ltoes -2.45539
1050
root 10.0681 17.3388 -0.0904663 8.82935 -5.81526 -5.97432
lowerback 18.2766 2.92236 1.50582
upperback 10.4711 3.91992 -3.46713
thorax 1.40697 2.12437 -5.17197
lowerneck -9.48755 -11.9463 -9.82435
upperneck -10.0734 -14.6833 15.138
head 0.447922 -7.228 5.45112
rclavicle -3.26007e-014 3.81667e-014
rhumerus 51.9648 -17.7415 -45.319
rradius 32.0549
rwrist -2.56644
rhand -27.571 19.9808
rfingers 7.12502
rthumb -0.971543 -9.99675
lclavicle -3.26007e-014 3.81667e-014
lhumerus -32.4368 -11.3038 96.1257
lradius 107.863
lwrist 20.0669
lhand -28.1396 0.471969
lfingers 7.12502
lthumb -1.52079 30.4463
rfemur -11.9161 -20.0558 28.3084
rtibia 31.3943
rfoot -23.7328 -20.5613
rtoes -5.79095
lfemur -35.9901 5.70188 -16.673
ltibia 42.7612
lfoot -10.1135 1.08387
ltoes -3.41829
1051
root 10.0614 17.3348 -0.0845948 8.60331 -5.97839 -5.82703
lowerback 18.3233 3.00861 1.21421
upperback 10.5136 3.98753 -3.46725
thorax 1.414 2.14491 -5.01913
lowerneck -9.22546 -11.803 -10.0539
upperneck -10.3458 -14.4631 15.3237
head 0.337432 -7.12637 5.58362
rclavicle -5.56597e-015 3.10104e-014
rhumerus 50.3981 -16.9789 -44.5859
rradius 34.1313
rwrist -3.81754
rhand -27.9701 20.7236
rfingers 7.12502
rthumb -1.35703 -9.25183
lclavicle -5.56597e-015 3.10104e-014
lhumerus -32.4158 -11.4972 96.1608
lradius 107.756
lwrist 19.9152
lhand -27.8786 1.33239
lfingers 7.12502
lthumb -1.2687 31.3084
rfemur -11.5398 -19.946 28.0188
rtibia 31.3137
rfoot -23.8335 -20.519
rtoes -6.12929
lfemur -35.6912 5.77062 -16.8063
ltibia 42.7758
lfoot -10.1326 1.21462
ltoes -4.4589
1052
root 10.0554 17.3323 -0.0795791 8.51251 -6.30644 -5.39471
lowerback 18.1832 3.17701 0.647736
upperback 10.5068 4.12172 -3.55383
thorax 1.4548 2.18849 -4.80349
lowerneck -8.87212 -11.6385 -10.4218
upperneck -10.6781 -14.2033 15.6197
head 0.210327 -7.00563 5.77976
rclavicle -1.27222e-014 -7.95139e-015
rhumerus 48.8262 -16.2714 -43.9369
rradius 36.2278
rwrist -5.03793
rhand -28.9683 21.4541
rfingers 7.12502
rthumb -2.32113 -8.51301
lclavicle -1.27222e-014 -7.95139e-015
lhumerus -32.4482 -11.7275 96.1744
lradius 107.722
lwrist 19.9923
lhand -27.3613 1.74191
lfingers 7.12502
lthumb -0.769017 31.7203
rfemur -11.396 -19.7922 27.4794
rtibia 31.272
rfoot -23.9211 -20.2163
rtoes -5.51646
lfemur -35.5595 5.79628 -17.2349
ltibia 42.7393
lfoot -10.199 1.41047
ltoes -4.48928
1053
root 10.0497 17.3393 -0.0767359 8.44624 -6.56103 -5.44202
lowerback 18.0968 3.26763 0.6037
upperback 10.4407 4.23184 -3.56414
thorax 1.4345 2.24017 -4.80329
lowerneck -8.79586 -11.499 -10.1897
upperneck -10.7383 -14.0405 15.2834
head 0.113147 -6.93104 5.66825
rclavicle 7.15625e-015 -8.74653e-015
rhumerus 47.4899 -15.5596 -43.7676
rradius 38.1214
rwrist -6.15083
rhand -30.2021 22.0114
rfingers 7.12502
rthumb -3.51264 -7.93944
lclavicle 7.15625e-015 -8.74653e-015
lhumerus -32.5956 -11.975 96.1437
lradius 107.73
lwrist 20.0568
lhand -27.0765 1.75693
lfingers 7.12502
lthumb -0.49397 31.7361
rfemur -11.3143 -19.6879 27.4729
rtibia 31.2957
rfoot -23.6369 -20.1431
rtoes -6.53563
lfemur -35.4394 5.76083 -17.0829
ltibia 42.6699
lfoot -10.1577 1.53912
ltoes -4.06306
1054
root 10.0444 17.3382 -0.0730654 8.32498 -6.80313 -5.59771
lowerback 18.0064 3.30315 0.636349
upperback 10.3953 4.28265 -3.54991
thorax 1.4372 2.2654 -4.80978
lowerneck -8.88912 -11.3429 -9.75903
upperneck -10.6843 -13.8705 14.8104
head 0.0493994 -6.84995 5.47397
rclavicle -3.02153e-014 2.78299e-014
rhumerus 46.339 -14.9493 -44.3313
rradius 40.0358
rwrist -6.69699
rhand -30.5593 23.1031
rfingers 7.12502
rthumb -3.85757 -6.84174
lclavicle -3.02153e-014 2.78299e-014
lhumerus -32.7892 -12.013 96.108
lradius 107.822
lwrist 20.0429
lhand -26.9381 1.89656
lfingers 7.12502
lthumb -0.36028 31.876
rfemur -11.147 -19.5674 27.53
rtibia 31.3789
rfoot -23.3736 -20.0477
rtoes -7.00627
lfemur -35.1665 5.73858 -16.8326
ltibia 42.5863
lfoot -10.1974 1.76808
ltoes -3.95432
1055
root 10.0481 17.3311 -0.0642449 8.08568 -7.18626 -5.32357
lowerback 17.9055 3.37633 0.342006
upperback 10.4641 4.33595 -3.61883
thorax 1.5515 2.28235 -4.71622
lowerneck -9.21151 -11.1902 -9.68955
upperneck -10.5633 -13.6554 14.6428
head 0.0901299 -6.72789 5.41065
rclavicle 1.59028e-014 4.05521e-014
rhumerus 45.4549 -14.5857 -45.3123
rradius 42.0261
rwrist -6.75688
rhand -30.1478 23.6787
rfingers 7.12502
rthumb -3.4602 -6.27299
lclavicle 1.59028e-014 4.05521e-014
lhumerus -32.7717 -11.921 96.1285
lradius 108.052
lwrist 20.1377
lhand -26.633 2.14899
lfingers 7.12502
lthumb -0.0656242 32.1287
rfemur -10.8377 -19.4447 27.0023
rtibia 31.4738
rfoot -23.4778 -19.6643
rtoes -6.1305
lfemur -34.7127 5.76752 -17.1188
ltibia 42.502
lfoot -10.3433 2.12102
ltoes -3.9476
1056
root 10.0542 17.3318 -0.058013 7.80247 -7.52303 -5.18969
lowerback 17.9313 3.42194 0.270326
upperback 10.5166 4.3832 -3.64146
thorax 1.59615 2.30393 -4.70723
lowerneck -9.74763 -11.1298 -9.48585
upperneck -10.1948 -13.5856 14.2301
head 0.221045 -6.66927 5.22396
rclavicle -2.46493e-014 4.21423e-014
rhumerus 44.5673 -14.1085 -46.0073
rradius 43.8588
rwrist -6.82409
rhand -30.0842 23.6192
rfingers 7.12502
rthumb -3.39875 -6.33346
lclavicle -2.46493e-014 4.21423e-014
lhumerus -32.6816 -11.9904 96.1313
lradius 108.177
lwrist 20.2096
lhand -26.4509 2.26305
lfingers 7.12502
lthumb 0.110279 32.2428
rfemur -10.5285 -19.382 26.636
rtibia 31.6012
rfoot -23.4326 -19.5664
rtoes -7.00258
lfemur -34.2684 5.69697 -17.2197
ltibia 42.4483
lfoot -10.3925 2.47717
ltoes -4.25379
1057
root 10.0503 17.3329 -0.0560081 7.6463 -7.72737 -5.01421
lowerback 17.845 3.44831 0.130817
upperback 10.4517 4.39699 -3.69907
thorax 1.56496 2.30485 -4.6885
lowerneck -9.82124 -11.0714 -9.44474
upperneck -10.0342 -13.5176 14.1222
head 0.259752 -6.62925 5.18215
rclavicle -3.02153e-014 1.82882e-014
rhumerus 43.2783 -13.2345 -46.0038
rradius 45.6864
rwrist -7.48203
rhand -30.5797 23.6152
rfingers 7.12502
rthumb -3.87729 -6.32929
lclavicle -3.02153e-014 1.82882e-014
lhumerus -32.6832 -12.3226 96.0114
lradius 108.023
lwrist 20.1956
lhand -26.6077 1.92311
lfingers 7.12502
lthumb -0.0411593 31.9028
rfemur -10.4078 -19.3222 26.3447
rtibia 31.759
rfoot -23.5104 -19.467
rtoes -7.10269
lfemur -34.0263 5.52377 -17.3375
ltibia 42.3832
lfoot -10.4333 2.80305
ltoes -4.89956
